<svg xmlns="http://www.w3.org/2000/svg" xmlns:xlink="http://www.w3.org/1999/xlink" width="150" zoomAndPan="magnify" viewBox="0 0 112.5 37.5" height="50" preserveAspectRatio="xMidYMid meet" version="1.0"><defs><clipPath id="81b8855583"><path d="M 0.492188 0 L 111.511719 0 L 111.511719 37.007812 L 0.492188 37.007812 Z M 0.492188 0 " clip-rule="nonzero"/></clipPath><clipPath id="48d74446b7"><path d="M 42.75 5.574219 L 69.515625 5.574219 L 69.515625 24 L 42.75 24 Z M 42.75 5.574219 " clip-rule="nonzero"/></clipPath><clipPath id="431b6bc75d"><path d="M 49 24 L 57 24 L 57 31.59375 L 49 31.59375 Z M 49 24 " clip-rule="nonzero"/></clipPath><clipPath id="f107ee94e7"><path d="M 59 24 L 67 24 L 67 31.59375 L 59 31.59375 Z M 59 24 " clip-rule="nonzero"/></clipPath></defs><g clip-path="url(#81b8855583)"><path fill="#ffffff" d="M 0.492188 0 L 112.007812 0 L 112.007812 43.863281 L 0.492188 43.863281 Z M 0.492188 0 " fill-opacity="1" fill-rule="nonzero"/><path fill="#ffffff" d="M 0.492188 0 L 112.007812 0 L 112.007812 37.171875 L 0.492188 37.171875 Z M 0.492188 0 " fill-opacity="1" fill-rule="nonzero"/><path fill="#ffffff" d="M 0.492188 0 L 112.007812 0 L 112.007812 37.171875 L 0.492188 37.171875 Z M 0.492188 0 " fill-opacity="1" fill-rule="nonzero"/></g><g clip-path="url(#48d74446b7)"><path fill="#000000" d="M 66.847656 10.507812 L 51.117188 10.507812 C 50.886719 10.507812 50.691406 10.589844 50.527344 10.753906 C 50.363281 10.917969 50.285156 11.113281 50.285156 11.347656 C 50.285156 11.578125 50.363281 11.777344 50.527344 11.941406 C 50.691406 12.105469 50.886719 12.1875 51.117188 12.1875 L 66.847656 12.1875 C 67.003906 12.1875 67.152344 12.226562 67.289062 12.300781 C 67.425781 12.378906 67.535156 12.484375 67.617188 12.621094 C 67.699219 12.753906 67.746094 12.902344 67.75 13.058594 C 67.757812 13.21875 67.726562 13.367188 67.65625 13.507812 C 66.703125 15.4375 65.34375 19.738281 64.664062 21.105469 C 64.5 21.445312 64.226562 21.613281 63.855469 21.613281 L 52.273438 21.613281 C 52.089844 21.613281 51.917969 21.558594 51.765625 21.453125 C 51.613281 21.347656 51.5 21.210938 51.433594 21.035156 C 51.433594 21.027344 48.828125 9.238281 48.828125 9.238281 C 48.722656 8.753906 48.539062 8.304688 48.28125 7.882812 C 48.019531 7.460938 47.699219 7.097656 47.316406 6.789062 C 46.933594 6.476562 46.511719 6.242188 46.050781 6.078125 C 45.585938 5.914062 45.109375 5.832031 44.621094 5.832031 L 43.585938 5.832031 C 43.472656 5.824219 43.363281 5.84375 43.257812 5.882812 C 43.15625 5.925781 43.0625 5.984375 42.984375 6.066406 C 42.902344 6.144531 42.84375 6.238281 42.804688 6.34375 C 42.761719 6.449219 42.746094 6.558594 42.75 6.671875 C 42.75 6.90625 42.832031 7.101562 42.996094 7.265625 C 43.15625 7.429688 43.355469 7.511719 43.585938 7.511719 L 44.621094 7.511719 C 44.921875 7.511719 45.210938 7.5625 45.496094 7.664062 C 45.78125 7.765625 46.039062 7.910156 46.273438 8.097656 C 46.507812 8.289062 46.703125 8.511719 46.863281 8.769531 C 47.023438 9.027344 47.136719 9.300781 47.199219 9.597656 L 49.8125 21.4375 C 49.820312 21.464844 49.828125 21.492188 49.835938 21.519531 C 50.011719 22.050781 50.324219 22.476562 50.773438 22.804688 C 51.21875 23.128906 51.722656 23.292969 52.273438 23.292969 L 63.855469 23.292969 C 64.34375 23.292969 64.792969 23.164062 65.207031 22.90625 C 65.621094 22.648438 65.9375 22.296875 66.15625 21.859375 C 66.832031 20.488281 68.191406 16.191406 69.148438 14.261719 C 69.246094 14.0625 69.316406 13.855469 69.363281 13.640625 C 69.410156 13.421875 69.425781 13.203125 69.417969 12.984375 C 69.40625 12.761719 69.371094 12.546875 69.304688 12.335938 C 69.238281 12.125 69.148438 11.925781 69.035156 11.738281 C 68.917969 11.546875 68.78125 11.378906 68.625 11.226562 C 68.464844 11.074219 68.292969 10.941406 68.101562 10.835938 C 67.90625 10.726562 67.707031 10.644531 67.496094 10.589844 C 67.28125 10.535156 67.066406 10.507812 66.847656 10.507812 Z M 66.847656 10.507812 " fill-opacity="1" fill-rule="evenodd"/></g><g clip-path="url(#431b6bc75d)"><path fill="#000000" d="M 53.179688 24.277344 C 52.730469 24.277344 52.292969 24.367188 51.878906 24.539062 C 51.460938 24.714844 51.09375 24.960938 50.773438 25.285156 C 50.453125 25.605469 50.207031 25.976562 50.035156 26.398438 C 49.863281 26.820312 49.777344 27.257812 49.777344 27.714844 C 49.777344 28.167969 49.863281 28.605469 50.035156 29.027344 C 50.207031 29.449219 50.453125 29.820312 50.773438 30.140625 C 51.09375 30.464844 51.460938 30.710938 51.878906 30.886719 C 52.296875 31.0625 52.730469 31.148438 53.179688 31.148438 C 53.632812 31.148438 54.066406 31.058594 54.484375 30.886719 C 54.902344 30.710938 55.269531 30.464844 55.589844 30.140625 C 55.910156 29.820312 56.152344 29.449219 56.328125 29.027344 C 56.5 28.605469 56.585938 28.167969 56.585938 27.710938 C 56.585938 27.257812 56.5 26.820312 56.324219 26.398438 C 56.152344 25.976562 55.90625 25.605469 55.585938 25.285156 C 55.269531 24.960938 54.898438 24.714844 54.484375 24.539062 C 54.066406 24.367188 53.632812 24.277344 53.179688 24.277344 Z M 53.179688 29.464844 C 52.949219 29.464844 52.730469 29.421875 52.515625 29.332031 C 52.304688 29.242188 52.113281 29.117188 51.953125 28.953125 C 51.789062 28.789062 51.664062 28.597656 51.574219 28.382812 C 51.488281 28.167969 51.441406 27.945312 51.441406 27.714844 C 51.441406 27.480469 51.488281 27.257812 51.574219 27.042969 C 51.664062 26.828125 51.789062 26.636719 51.953125 26.472656 C 52.113281 26.308594 52.300781 26.183594 52.515625 26.09375 C 52.726562 26.003906 52.949219 25.960938 53.179688 25.960938 C 53.410156 25.960938 53.632812 26.003906 53.84375 26.09375 C 54.058594 26.183594 54.246094 26.308594 54.410156 26.472656 C 54.574219 26.636719 54.699219 26.828125 54.785156 27.042969 C 54.875 27.257812 54.917969 27.480469 54.917969 27.710938 C 54.917969 27.945312 54.875 28.167969 54.785156 28.382812 C 54.699219 28.597656 54.574219 28.789062 54.410156 28.953125 C 54.246094 29.117188 54.058594 29.242188 53.847656 29.332031 C 53.632812 29.421875 53.410156 29.464844 53.179688 29.464844 Z M 53.179688 29.464844 " fill-opacity="1" fill-rule="evenodd"/></g><g clip-path="url(#f107ee94e7)"><path fill="#000000" d="M 62.671875 24.277344 C 62.21875 24.277344 61.785156 24.367188 61.367188 24.539062 C 60.949219 24.714844 60.582031 24.960938 60.261719 25.285156 C 59.945312 25.605469 59.699219 25.976562 59.523438 26.398438 C 59.351562 26.820312 59.265625 27.257812 59.265625 27.714844 C 59.265625 28.167969 59.351562 28.605469 59.523438 29.027344 C 59.699219 29.449219 59.945312 29.820312 60.261719 30.140625 C 60.582031 30.464844 60.949219 30.710938 61.367188 30.886719 C 61.785156 31.0625 62.21875 31.148438 62.671875 31.148438 C 63.121094 31.148438 63.558594 31.058594 63.972656 30.886719 C 64.390625 30.710938 64.757812 30.464844 65.078125 30.140625 C 65.398438 29.820312 65.644531 29.449219 65.816406 29.027344 C 65.988281 28.605469 66.074219 28.167969 66.074219 27.710938 C 66.074219 27.257812 65.988281 26.820312 65.816406 26.398438 C 65.644531 25.976562 65.398438 25.605469 65.078125 25.285156 C 64.757812 24.960938 64.390625 24.714844 63.972656 24.539062 C 63.554688 24.367188 63.121094 24.277344 62.671875 24.277344 Z M 62.671875 29.464844 C 62.441406 29.464844 62.21875 29.421875 62.003906 29.332031 C 61.792969 29.242188 61.605469 29.117188 61.441406 28.953125 C 61.277344 28.789062 61.152344 28.597656 61.066406 28.382812 C 60.976562 28.167969 60.933594 27.945312 60.933594 27.714844 C 60.933594 27.480469 60.976562 27.257812 61.066406 27.042969 C 61.152344 26.828125 61.277344 26.636719 61.441406 26.472656 C 61.605469 26.308594 61.792969 26.183594 62.003906 26.09375 C 62.21875 26.003906 62.441406 25.960938 62.671875 25.960938 C 62.902344 25.960938 63.121094 26.003906 63.335938 26.09375 C 63.546875 26.183594 63.734375 26.308594 63.898438 26.472656 C 64.0625 26.636719 64.1875 26.828125 64.277344 27.042969 C 64.363281 27.257812 64.410156 27.480469 64.410156 27.710938 C 64.410156 27.945312 64.363281 28.167969 64.277344 28.382812 C 64.1875 28.597656 64.0625 28.789062 63.898438 28.953125 C 63.738281 29.117188 63.546875 29.242188 63.335938 29.332031 C 63.121094 29.421875 62.902344 29.464844 62.671875 29.464844 Z M 62.671875 29.464844 " fill-opacity="1" fill-rule="evenodd"/></g></svg>