<svg xmlns="http://www.w3.org/2000/svg" xmlns:xlink="http://www.w3.org/1999/xlink" width="100" zoomAndPan="magnify" viewBox="0 0 75 37.5" height="50" preserveAspectRatio="xMidYMid meet" version="1.0"><defs><clipPath id="4d8255fa3d"><path d="M 0.492188 12.648438 L 74.503906 12.648438 L 74.503906 24.492188 L 0.492188 24.492188 Z M 0.492188 12.648438 " clip-rule="nonzero"/></clipPath></defs><g clip-path="url(#4d8255fa3d)"><path fill="#ffc30f" d="M 12.601562 17.414062 L 9.875 20.101562 C 9.820312 20.15625 9.792969 20.238281 9.804688 20.316406 L 10.449219 24.113281 C 10.484375 24.3125 10.277344 24.464844 10.101562 24.371094 L 6.730469 22.578125 C 6.660156 22.539062 6.578125 22.539062 6.507812 22.578125 L 3.136719 24.371094 C 2.960938 24.464844 2.753906 24.3125 2.789062 24.113281 L 3.429688 20.316406 C 3.445312 20.238281 3.417969 20.15625 3.363281 20.101562 L 0.636719 17.414062 C 0.492188 17.269531 0.570312 17.023438 0.769531 16.996094 L 4.535156 16.441406 C 4.613281 16.429688 4.683594 16.382812 4.71875 16.308594 L 6.402344 12.855469 C 6.492188 12.671875 6.746094 12.671875 6.835938 12.855469 L 8.519531 16.308594 C 8.554688 16.382812 8.621094 16.429688 8.699219 16.441406 L 12.46875 16.996094 C 12.667969 17.023438 12.746094 17.269531 12.601562 17.414062 Z M 27.910156 16.996094 L 24.140625 16.441406 C 24.0625 16.429688 23.996094 16.382812 23.960938 16.308594 L 22.273438 12.855469 C 22.1875 12.671875 21.929688 12.671875 21.84375 12.855469 L 20.160156 16.308594 C 20.125 16.382812 20.054688 16.429688 19.976562 16.441406 L 16.210938 16.996094 C 16.011719 17.023438 15.933594 17.269531 16.074219 17.414062 L 18.800781 20.101562 C 18.859375 20.15625 18.882812 20.238281 18.871094 20.316406 L 18.226562 24.113281 C 18.195312 24.3125 18.402344 24.464844 18.578125 24.371094 L 21.945312 22.578125 C 22.015625 22.539062 22.101562 22.539062 22.171875 22.578125 L 25.539062 24.371094 C 25.71875 24.464844 25.925781 24.3125 25.890625 24.113281 L 25.246094 20.316406 C 25.234375 20.238281 25.257812 20.15625 25.316406 20.101562 L 28.042969 17.414062 C 28.183594 17.269531 28.105469 17.023438 27.910156 16.996094 Z M 43.347656 16.996094 L 39.582031 16.441406 C 39.503906 16.429688 39.4375 16.382812 39.402344 16.308594 L 37.714844 12.855469 C 37.628906 12.671875 37.371094 12.671875 37.285156 12.855469 L 35.597656 16.308594 C 35.5625 16.382812 35.496094 16.429688 35.417969 16.441406 L 31.648438 16.996094 C 31.453125 17.023438 31.375 17.269531 31.515625 17.414062 L 34.242188 20.101562 C 34.300781 20.15625 34.324219 20.238281 34.3125 20.316406 L 33.667969 24.113281 C 33.632812 24.3125 33.839844 24.464844 34.019531 24.371094 L 37.386719 22.578125 C 37.457031 22.539062 37.542969 22.539062 37.613281 22.578125 L 40.980469 24.371094 C 41.15625 24.464844 41.363281 24.3125 41.332031 24.113281 L 40.6875 20.316406 C 40.671875 20.238281 40.699219 20.15625 40.757812 20.101562 L 43.480469 17.414062 C 43.625 17.269531 43.546875 17.023438 43.347656 16.996094 Z M 58.789062 16.996094 L 55.023438 16.441406 C 54.945312 16.429688 54.875 16.382812 54.839844 16.308594 L 53.15625 12.855469 C 53.066406 12.671875 52.8125 12.671875 52.722656 12.855469 L 51.039062 16.308594 C 51.003906 16.382812 50.9375 16.429688 50.859375 16.441406 L 47.089844 16.996094 C 46.894531 17.023438 46.8125 17.269531 46.957031 17.414062 L 49.683594 20.101562 C 49.738281 20.15625 49.765625 20.238281 49.753906 20.316406 L 49.109375 24.113281 C 49.074219 24.3125 49.28125 24.464844 49.457031 24.371094 L 52.828125 22.578125 C 52.898438 22.539062 52.980469 22.539062 53.050781 22.578125 L 56.421875 24.371094 C 56.597656 24.464844 56.804688 24.3125 56.769531 24.113281 L 56.128906 20.316406 C 56.113281 20.238281 56.140625 20.15625 56.195312 20.101562 L 58.921875 17.414062 C 59.066406 17.269531 58.988281 17.023438 58.789062 16.996094 Z M 74.363281 17.414062 C 74.507812 17.269531 74.429688 17.023438 74.230469 16.996094 L 70.464844 16.441406 C 70.386719 16.429688 70.316406 16.382812 70.28125 16.308594 L 68.597656 12.855469 C 68.507812 12.671875 68.253906 12.671875 68.164062 12.855469 L 66.480469 16.308594 C 66.445312 16.382812 66.378906 16.429688 66.300781 16.441406 L 62.53125 16.996094 C 62.332031 17.023438 62.253906 17.269531 62.398438 17.414062 L 65.125 20.101562 C 65.179688 20.15625 65.207031 20.238281 65.191406 20.316406 L 64.550781 24.113281 C 64.515625 24.3125 64.722656 24.464844 64.898438 24.371094 L 68.269531 22.578125 C 68.339844 22.539062 68.421875 22.539062 68.492188 22.578125 L 71.863281 24.371094 C 72.039062 24.464844 72.246094 24.3125 72.210938 24.113281 L 71.570312 20.316406 C 71.554688 20.238281 71.582031 20.15625 71.636719 20.101562 Z M 74.363281 17.414062 " fill-opacity="1" fill-rule="nonzero"/></g></svg>